<?xml version="1.0" encoding="UTF-8"?><svg xmlns="http://www.w3.org/2000/svg" xmlns:xlink="http://www.w3.org/1999/xlink" version="1.1" id="Layer_1" x="0px" y="0px" viewBox="0 0 24 24" xml:space="preserve"><g fill="none" stroke="#303C42" stroke-linecap="round" stroke-linejoin="round" stroke-miterlimit="10"><path d="M21 22.5H3A1.5 1.5 0 0 1 1.5 21V3A1.5 1.5 0 0 1 3 1.5h18A1.5 1.5 0 0 1 22.5 3v18a1.5 1.5 0 0 1-1.5 1.5z"/><path id="XMLID_1332_" d="M8.5 14h-1v-4h1a1 1 0 0 1 1 1v2a1 1 0 0 1-1 1z"/><path id="XMLID_1350_" d="M13 10h-2v4h2"/><path id="XMLID_1351_" d="M11 12h1.5"/><path id="XMLID_1333_" d="M14.5 10v4h2"/></g><metadata><rdf:RDF xmlns:rdf="http://www.w3.org/1999/02/22-rdf-syntax-ns#" xmlns:rdfs="http://www.w3.org/2000/01/rdf-schema#" xmlns:dc="http://purl.org/dc/elements/1.1/"><rdf:Description about="https://iconscout.com/legal#licenses" dc:title="delete,button,keyboard,type" dc:description="delete,button,keyboard,type" dc:publisher="Iconscout" dc:date="2017-08-16" dc:format="image/svg+xml" dc:language="en"><dc:creator><rdf:Bag><rdf:li>Those Icons</rdf:li></rdf:Bag></dc:creator></rdf:Description></rdf:RDF></metadata></svg>